<?xml version="1.0" encoding="UTF-8" standalone="no"?>
<!-- Created with Inkscape (http://www.inkscape.org/) -->

<svg
   xmlns:dc="http://purl.org/dc/elements/1.1/"
   xmlns:cc="http://creativecommons.org/ns#"
   xmlns:rdf="http://www.w3.org/1999/02/22-rdf-syntax-ns#"
   xmlns:svg="http://www.w3.org/2000/svg"
   xmlns="http://www.w3.org/2000/svg"
   xmlns:sodipodi="http://sodipodi.sourceforge.net/DTD/sodipodi-0.dtd"
   xmlns:inkscape="http://www.inkscape.org/namespaces/inkscape"
   id="svg2876"
   version="1.1"
   inkscape:version="0.47 r22583"
   width="1003.6547"
   height="517.00433"
   xml:space="preserve"
   sodipodi:docname="path2.pdf"
   inkscape:export-filename="/local/b225404/boy-proj/atlas_opi/path2.png"
   inkscape:export-xdpi="179.34"
   inkscape:export-ydpi="179.34"><metadata
     id="metadata2882"><rdf:RDF><cc:Work
         rdf:about=""><dc:format>image/svg+xml</dc:format><dc:type
           rdf:resource="http://purl.org/dc/dcmitype/StillImage" /><dc:title></dc:title></cc:Work></rdf:RDF></metadata><defs
     id="defs2880"><inkscape:perspective
       sodipodi:type="inkscape:persp3d"
       inkscape:vp_x="0 : 0.5 : 1"
       inkscape:vp_y="0 : 1000 : 0"
       inkscape:vp_z="1 : 0.5 : 1"
       inkscape:persp3d-origin="0.5 : 0.33333333 : 1"
       id="perspective2884" /></defs><sodipodi:namedview
     pagecolor="#ffffff"
     bordercolor="#666666"
     borderopacity="1"
     objecttolerance="10"
     gridtolerance="10"
     guidetolerance="10"
     inkscape:pageopacity="0"
     inkscape:pageshadow="2"
     inkscape:window-width="1600"
     inkscape:window-height="1124"
     id="namedview2878"
     showgrid="false"
     inkscape:zoom="1.2676725"
     inkscape:cx="558.22361"
     inkscape:cy="183.97913"
     inkscape:window-x="0"
     inkscape:window-y="25"
     inkscape:window-maximized="1"
     inkscape:current-layer="g2888" /><g
     id="g2886"
     inkscape:groupmode="layer"
     inkscape:label="path2"
     transform="matrix(1.25,0,0,-1.25,-91.026155,606.39562)"><g
       id="g2888"
       transform="scale(0.229721,0.229721)"><path
         d="m 659.496,1358.17 208.949,0 0,156.711 -208.949,0 0,-156.711 z"
         style="fill:none;stroke:#000000;stroke-width:4.24428988;stroke-linecap:round;stroke-linejoin:miter;stroke-miterlimit:6;stroke-opacity:1;stroke-dasharray:none"
         id="path2890" /><g
         id="g2892"
         transform="scale(4.35312,4.35312)"><text
           transform="matrix(1,0,0,-1,160.293,324.388)"
           id="text2894"><tspan
             style="font-size:15px;font-variant:normal;font-weight:normal;writing-mode:lr-tb;fill:#000000;fill-opacity:1;fill-rule:nonzero;stroke:none;font-family:Helvetica;-inkscape-font-specification:Helvetica"
             x="0 10.83 21.66"
             y="0"
             sodipodi:role="line"
             id="tspan2896">DDC</tspan></text>
</g><path
         d="m 2722.88,1358.17 208.949,0 0,156.711 -208.949,0 0,-156.711 z"
         style="fill:none;stroke:#000000;stroke-width:4.24428988;stroke-linecap:round;stroke-linejoin:miter;stroke-miterlimit:6;stroke-opacity:1;stroke-dasharray:none"
         id="path2898" /><g
         id="g2900"
         transform="scale(4.35312,4.35312)"><text
           transform="matrix(1,0,0,-1,634.178,324.388)"
           id="text2902"><tspan
             style="font-size:15px;font-variant:normal;font-weight:normal;writing-mode:lr-tb;fill:#000000;fill-opacity:1;fill-rule:nonzero;stroke:none;font-family:Helvetica;-inkscape-font-specification:Helvetica"
             x="0 10.83 21.66"
             y="0"
             sodipodi:role="line"
             id="tspan2904">DUC</tspan><tspan
             style="font-size:15px;font-variant:normal;font-weight:normal;writing-mode:lr-tb;fill:#000000;fill-opacity:1;fill-rule:nonzero;stroke:none;font-family:Helvetica;-inkscape-font-specification:Helvetica"
             x="-487.517 -476.68701 -465.017 -454.18701 -443.35699 -439.18701"
             y="83.960999"
             sodipodi:role="line"
             id="tspan2906">CORDIC</tspan></text>
</g><path
         d="m 581.141,992.512 365.664,0 0,156.711 -365.664,0 0,-156.711 z"
         style="fill:none;stroke:#000000;stroke-width:4.24428988;stroke-linecap:round;stroke-linejoin:miter;stroke-miterlimit:6;stroke-opacity:1;stroke-dasharray:none"
         id="path2908" /><g
         id="g2910"
         transform="scale(4.35312,4.35312)"><text
           transform="matrix(1,0,0,-1,402.656,84.4169)"
           id="text2912"><tspan
             style="font-size:15px;font-variant:normal;font-weight:normal;writing-mode:lr-tb;fill:#000000;fill-opacity:1;fill-rule:nonzero;stroke:none;font-family:Helvetica;-inkscape-font-specification:Helvetica"
             x="0 8.3400002 20.01 24.18 34.185001 42.525002 50.865002 58.365002 66.705002 70.875 80.879997 88.379997 95.879997"
             y="0"
             sodipodi:role="line"
             id="tspan2914">LO Phase Acc.</tspan></text>
</g><path
         d="m 1704.25,313.426 522.371,0 0,130.594 -522.371,0 0,-130.594 z"
         style="fill:none;stroke:#000000;stroke-width:4.24428988;stroke-linecap:round;stroke-linejoin:miter;stroke-miterlimit:6;stroke-opacity:1;stroke-dasharray:none"
         id="path2916" /><g
         id="g2918"
         transform="scale(4.35312,4.35312)"><text
           transform="matrix(1,0,0,-1,620.547,240.427)"
           id="text2920"><tspan
             style="font-size:15px;font-variant:normal;font-weight:normal;writing-mode:lr-tb;fill:#000000;fill-opacity:1;fill-rule:nonzero;stroke:none;font-family:Helvetica;-inkscape-font-specification:Helvetica"
             x="0 10.83 22.5 33.330002 44.16 48.330002"
             y="0"
             sodipodi:role="line"
             id="tspan2922">CORDIC</tspan></text>
</g><path
         d="m 2644.52,992.512 365.66,0 0,156.711 -365.66,0 0,-156.711 z"
         style="fill:none;stroke:#000000;stroke-width:4.24428988;stroke-linecap:round;stroke-linejoin:miter;stroke-miterlimit:6;stroke-opacity:1;stroke-dasharray:none"
         id="path2924" /><g
         id="g2926"
         transform="scale(4.35312,4.35312)"><text
           transform="matrix(1,0,0,-1,121.85,156.556)"
           id="text2928"><tspan
             style="font-size:15px;font-variant:normal;font-weight:normal;writing-mode:lr-tb;fill:#000000;fill-opacity:1;fill-rule:nonzero;stroke:none;font-family:Helvetica;-inkscape-font-specification:Helvetica"
             x="0 8.3400002 12.51 20.85 33.345001 41.685001 50.025002 53.355"
             y="0"
             sodipodi:role="line"
             id="tspan2930">1/amp_in</tspan></text>
</g><path
         d="m 659.496,966.391 0,-208.95"
         style="fill:none;stroke:#000000;stroke-width:4.24428988;stroke-linecap:round;stroke-linejoin:miter;stroke-miterlimit:6;stroke-opacity:1;stroke-dasharray:none"
         id="path2932" /><g
         id="g2934"
         transform="scale(4.35312,4.35312)"><text
           transform="matrix(1,0,0,-1,644.803,157.014)"
           id="text2936"><tspan
             style="font-size:15px;font-variant:normal;font-weight:normal;writing-mode:lr-tb;fill:#000000;fill-opacity:1;fill-rule:nonzero;stroke:none;font-family:Helvetica;-inkscape-font-specification:Helvetica"
             x="0 8.3400002 20.834999 29.174999 37.514999 45.855 54.195"
             y="0"
             sodipodi:role="line"
             id="tspan2938">amp_out</tspan></text>
</g><path
         d="m 2931.82,966.391 0,-235.067"
         style="fill:none;stroke:#000000;stroke-width:4.24428988;stroke-linecap:round;stroke-linejoin:miter;stroke-miterlimit:6;stroke-opacity:1;stroke-dasharray:none"
         id="path2940" /><path
         d="m 1051.28,705.203 0,-52.234 104.47,-52.239 0,156.711 -104.47,-52.238"
         style="fill:none;stroke:#000000;stroke-width:4.24428988;stroke-linecap:round;stroke-linejoin:miter;stroke-miterlimit:6;stroke-opacity:1;stroke-dasharray:none"
         id="path2942" /><g
         id="g2944"
         transform="scale(4.35312,4.35312)"><text
           transform="matrix(1,0,0,-1,249.12,150.962)"
           id="text2946"><tspan
             style="font-size:15px;font-variant:normal;font-weight:normal;writing-mode:lr-tb;fill:#000000;fill-opacity:1;fill-rule:nonzero;stroke:none;font-family:Symbol;-inkscape-font-specification:Symbol"
             x="0"
             y="0"
             id="tspan2948">Σ</tspan></text>
</g><path
         d="m 868.445,966.391 0,-287.305 182.835,0"
         style="fill:none;stroke:#000000;stroke-width:4.24428988;stroke-linecap:round;stroke-linejoin:miter;stroke-miterlimit:6;stroke-opacity:1;stroke-dasharray:none"
         id="path2950" /><g
         id="g2952"
         transform="scale(4.35312,4.35312)"><text
           transform="matrix(1,0,0,-1,395.477,192.523)"
           id="text2954"><tspan
             style="font-size:15px;font-variant:normal;font-weight:normal;writing-mode:lr-tb;fill:#000000;fill-opacity:1;fill-rule:nonzero;stroke:none;font-family:Helvetica;-inkscape-font-specification:Helvetica"
             x="0 4.9949999 13.335 21.674999 30.014999 37.514999 45.855 54.195 57.525002"
             y="0"
             sodipodi:role="line"
             id="tspan2956">-phase_in</tspan></text>
</g><path
         d="m 1521.41,757.441 339.55,0"
         style="fill:none;stroke:#000000;stroke-width:4.24428988;stroke-linecap:round;stroke-linejoin:miter;stroke-miterlimit:6;stroke-opacity:1;stroke-dasharray:none"
         id="path2958" /><path
         d="m 1201.46,666.027 c -16.32,-8.164 -21.22,-8.164 -45.71,-13.058 24.49,-4.899 29.39,-4.899 45.71,-13.063 -3.26,9.797 -3.26,16.324 0,26.121"
         style="fill:#000000;fill-opacity:1;fill-rule:evenodd;stroke:none"
         id="path2960" /><path
         d="m 1541,770.5 c -16.32,-8.16 -21.22,-8.16 -45.7,-13.059 24.48,-4.894 29.38,-4.894 45.7,-13.058 -3.26,9.793 -3.26,16.324 0,26.117"
         style="fill:#000000;fill-opacity:1;fill-rule:evenodd;stroke:none"
         id="path2962" /><path
         d="m 1860.96,757.441 0,52.239"
         style="fill:none;stroke:#000000;stroke-width:4.24428988;stroke-linecap:round;stroke-linejoin:miter;stroke-miterlimit:6;stroke-opacity:1;stroke-dasharray:none"
         id="path2964" /><g
         id="g2966"
         transform="scale(4.35312,4.35312)"><text
           transform="matrix(1,0,0,-1,477.15,180.496)"
           id="text2968"><tspan
             style="font-size:15px;font-variant:normal;font-weight:normal;writing-mode:lr-tb;fill:#000000;fill-opacity:1;fill-rule:nonzero;stroke:none;font-family:Helvetica;-inkscape-font-specification:Helvetica"
             x="0 8.3400002 16.68 25.02 32.52 40.860001 49.200001 57.540001 65.879997"
             y="0"
             sodipodi:role="line"
             id="tspan2970">phase_out</tspan></text>
</g><path
         d="m 2566.16,705.203 0,-52.234 -104.47,-52.239 0,156.711 104.47,-52.238"
         style="fill:none;stroke:#000000;stroke-width:4.24428988;stroke-linecap:round;stroke-linejoin:miter;stroke-miterlimit:6;stroke-opacity:1;stroke-dasharray:none"
         id="path2972" /><g
         id="g2974"
         transform="scale(4.35312,4.35312)"><text
           transform="matrix(1,0,0,-1,573.12,150.962)"
           id="text2976"><tspan
             style="font-size:15px;font-variant:normal;font-weight:normal;writing-mode:lr-tb;fill:#000000;fill-opacity:1;fill-rule:nonzero;stroke:none;font-family:Symbol;-inkscape-font-specification:Symbol"
             x="0"
             y="0"
             id="tspan2978">Σ</tspan></text>
</g><path
         d="m 2435.57,705.203 -208.95,0"
         style="fill:none;stroke:#000000;stroke-width:4.24428988;stroke-linecap:round;stroke-linejoin:miter;stroke-miterlimit:6;stroke-opacity:1;stroke-dasharray:none"
         id="path2980" /><path
         d="m 2226.62,705.203 0,52.238"
         style="fill:none;stroke:#000000;stroke-width:4.24428988;stroke-linecap:round;stroke-linejoin:miter;stroke-miterlimit:6;stroke-opacity:1;stroke-dasharray:none"
         id="path2982" /><path
         d="m 2415.98,718.266 c 16.32,-8.164 21.22,-8.164 45.71,-13.063 -24.49,-4.894 -29.39,-4.894 -45.71,-13.058 3.27,9.796 3.27,16.324 0,26.121"
         style="fill:#000000;fill-opacity:1;fill-rule:evenodd;stroke:none"
         id="path2984" /><path
         d="m 2415.98,666.027 c 16.32,-8.164 21.22,-8.164 45.71,-13.058 -24.49,-4.899 -29.39,-4.899 -45.71,-13.063 3.27,9.797 3.27,16.324 0,26.121"
         style="fill:#000000;fill-opacity:1;fill-rule:evenodd;stroke:none"
         id="path2986" /><path
         d="m 2722.88,966.391 0,-287.305 -156.72,0"
         style="fill:none;stroke:#000000;stroke-width:4.24428988;stroke-linecap:round;stroke-linejoin:miter;stroke-miterlimit:6;stroke-opacity:1;stroke-dasharray:none"
         id="path2988" /><path
         d="m 2944.88,946.805 c -8.16,16.324 -8.16,21.218 -13.06,45.707 -4.89,-24.489 -4.89,-29.383 -13.05,-45.707 9.79,3.261 16.32,3.261 26.11,0"
         style="fill:#000000;fill-opacity:1;fill-rule:evenodd;stroke:none"
         id="path2990" /><path
         d="m 2735.93,946.805 c -8.16,16.324 -8.16,21.218 -13.05,45.707 -4.9,-24.489 -4.9,-29.383 -13.06,-45.707 9.79,3.261 16.32,3.261 26.11,0"
         style="fill:#000000;fill-opacity:1;fill-rule:evenodd;stroke:none"
         id="path2992" /><path
         d="m 881.508,946.805 c -8.164,16.324 -8.164,21.218 -13.063,45.707 -4.894,-24.489 -4.894,-29.383 -13.058,-45.707 9.797,3.261 16.324,3.261 26.121,0"
         style="fill:#000000;fill-opacity:1;fill-rule:evenodd;stroke:none"
         id="path2994" /><path
         d="m 672.555,946.805 c -8.16,16.324 -8.16,21.218 -13.059,45.707 -4.894,-24.489 -4.894,-29.383 -13.058,-45.707 9.792,3.261 16.324,3.261 26.117,0"
         style="fill:#000000;fill-opacity:1;fill-rule:evenodd;stroke:none"
         id="path2996" /><path
         d="m 763.973,1332.05 0,-182.83"
         style="fill:none;stroke:#000000;stroke-width:4.24428988;stroke-linecap:round;stroke-linejoin:miter;stroke-miterlimit:6;stroke-opacity:1;stroke-dasharray:none"
         id="path2998" /><path
         d="m 777.031,1312.46 c -8.16,16.33 -8.16,21.23 -13.058,45.71 -4.899,-24.48 -4.899,-29.38 -13.059,-45.71 9.793,3.27 16.324,3.27 26.117,0"
         style="fill:#000000;fill-opacity:1;fill-rule:evenodd;stroke:none"
         id="path3000" /><path
         d="m 2827.35,1332.05 0,-182.83"
         style="fill:none;stroke:#000000;stroke-width:4.24428988;stroke-linecap:round;stroke-linejoin:miter;stroke-miterlimit:6;stroke-opacity:1;stroke-dasharray:none"
         id="path3002" /><path
         d="m 2840.41,1312.46 c -8.16,16.33 -8.16,21.23 -13.06,45.71 -4.9,-24.48 -4.9,-29.38 -13.06,-45.71 9.8,3.27 16.32,3.27 26.12,0"
         style="fill:#000000;fill-opacity:1;fill-rule:evenodd;stroke:none"
         id="path3004" /><path
         d="m 2056.85,1410.41 -927.22,0"
         style="fill:none;stroke:#000000;stroke-width:4.24428988;stroke-linecap:round;stroke-linejoin:miter;stroke-miterlimit:6;stroke-opacity:1;stroke-dasharray:none"
         id="path3006" /><path
         d="m 1312.46,1305.93 -52.23,-52.23"
         style="fill:none;stroke:#000000;stroke-width:4.24428988;stroke-linecap:round;stroke-linejoin:miter;stroke-miterlimit:6;stroke-opacity:1;stroke-dasharray:none"
         id="path3008" /><path
         d="m 1312.46,1253.7 -52.23,52.23"
         style="fill:none;stroke:#000000;stroke-width:4.24428988;stroke-linecap:round;stroke-linejoin:miter;stroke-miterlimit:6;stroke-opacity:1;stroke-dasharray:none"
         id="path3010" /><path
         d="m 1322.26,1279.82 c 0,19.83 -16.08,35.91 -35.91,35.91 -19.83,0 -35.92,-16.08 -35.92,-35.91 0,-19.84 16.09,-35.92 35.92,-35.92 19.83,0 35.91,16.08 35.91,35.92"
         style="fill:none;stroke:#000000;stroke-width:4.24428988;stroke-linecap:round;stroke-linejoin:miter;stroke-miterlimit:6;stroke-opacity:1;stroke-dasharray:none"
         id="path3012" /><path
         d="m 1234.11,1305.93 -104.48,0 0,104.48"
         style="fill:none;stroke:#000000;stroke-width:4.24428988;stroke-linecap:round;stroke-linejoin:miter;stroke-miterlimit:6;stroke-opacity:1;stroke-dasharray:none"
         id="path3014" /><path
         d="m 1234.11,1253.7 -104.48,0 0,52.23"
         style="fill:none;stroke:#000000;stroke-width:4.24428988;stroke-linecap:round;stroke-linejoin:miter;stroke-miterlimit:6;stroke-opacity:1;stroke-dasharray:none"
         id="path3016" /><path
         d="m 1214.52,1292.88 c 16.32,8.16 21.22,8.16 45.71,13.05 -24.49,4.9 -29.39,4.9 -45.71,13.07 3.27,-9.8 3.27,-16.33 0,-26.12"
         style="fill:#000000;fill-opacity:1;fill-rule:evenodd;stroke:none"
         id="path3018" /><path
         d="m 1214.52,1240.64 c 16.32,8.16 21.22,8.16 45.71,13.06 -24.49,4.89 -29.39,4.89 -45.71,13.06 3.27,-9.8 3.27,-16.33 0,-26.12"
         style="fill:#000000;fill-opacity:1;fill-rule:evenodd;stroke:none"
         id="path3020" /><path
         d="m 1416.94,1279.82 -91.42,0"
         style="fill:none;stroke:#000000;stroke-width:4.24428988;stroke-linecap:round;stroke-linejoin:miter;stroke-miterlimit:6;stroke-opacity:1;stroke-dasharray:none"
         id="path3022" /><path
         d="m 1443.06,1201.46 208.949,0 0,156.711 -208.949,0 0,-156.711 z"
         style="fill:none;stroke:#000000;stroke-width:4.24428988;stroke-linecap:round;stroke-linejoin:miter;stroke-miterlimit:6;stroke-opacity:1;stroke-dasharray:none"
         id="path3024" /><path
         d="m 1469.18,1332.05 c 26.12,0 78.35,0 130.59,-104.47"
         style="fill:none;stroke:#000000;stroke-width:4.24428988;stroke-linecap:round;stroke-linejoin:miter;stroke-miterlimit:6;stroke-opacity:1;stroke-dasharray:none"
         id="path3026" /><path
         d="m 1397.35,1266.76 c 16.33,8.16 21.22,8.16 45.71,13.06 -24.49,4.89 -29.38,4.89 -45.71,13.06 3.26,-9.8 3.26,-16.33 0,-26.12"
         style="fill:#000000;fill-opacity:1;fill-rule:evenodd;stroke:none"
         id="path3028" /><path
         d="m 2148.26,1436.53 -52.23,-52.24"
         style="fill:none;stroke:#000000;stroke-width:4.24428988;stroke-linecap:round;stroke-linejoin:miter;stroke-miterlimit:6;stroke-opacity:1;stroke-dasharray:none"
         id="path3030" /><path
         d="m 2148.26,1384.29 -52.23,52.24"
         style="fill:none;stroke:#000000;stroke-width:4.24428988;stroke-linecap:round;stroke-linejoin:miter;stroke-miterlimit:6;stroke-opacity:1;stroke-dasharray:none"
         id="path3032" /><path
         d="m 2158.06,1410.41 c 0,19.83 -16.08,35.91 -35.92,35.91 -19.83,0 -35.91,-16.08 -35.91,-35.91 0,-19.83 16.08,-35.91 35.91,-35.91 19.84,0 35.92,16.08 35.92,35.91"
         style="fill:none;stroke:#000000;stroke-width:4.24428988;stroke-linecap:round;stroke-linejoin:miter;stroke-miterlimit:6;stroke-opacity:1;stroke-dasharray:none"
         id="path3034" /><path
         d="m 1756.48,1279.82 -104.47,0"
         style="fill:none;stroke:#000000;stroke-width:4.24428988;stroke-linecap:round;stroke-linejoin:miter;stroke-miterlimit:6;stroke-opacity:1;stroke-dasharray:none"
         id="path3036" /><path
         d="m 1782.6,1201.46 208.949,0 0,156.711 -208.949,0 0,-156.711 z"
         style="fill:none;stroke:#000000;stroke-width:4.24428988;stroke-linecap:round;stroke-linejoin:miter;stroke-miterlimit:6;stroke-opacity:1;stroke-dasharray:none"
         id="path3038" /><g
         id="g3040"
         transform="scale(4.35312,4.35312)"><text
           transform="matrix(1,0,0,-1,423.545,288.661)"
           id="text3042"><tspan
             style="font-size:15px;font-variant:normal;font-weight:normal;writing-mode:lr-tb;fill:#000000;fill-opacity:1;fill-rule:nonzero;stroke:none;font-family:Helvetica;-inkscape-font-specification:Helvetica"
             x="0 8.3400002 13.335"
             y="0"
             sodipodi:role="line"
             id="tspan3044">2-x</tspan></text>
</g><path
         d="m 2122.14,1345.11 0,-65.29 -130.59,0"
         style="fill:none;stroke:#000000;stroke-width:4.24428988;stroke-linecap:round;stroke-linejoin:miter;stroke-miterlimit:6;stroke-opacity:1;stroke-dasharray:none"
         id="path3046" /><path
         d="m 2304.98,1410.41 -143.66,0"
         style="fill:none;stroke:#000000;stroke-width:4.24428988;stroke-linecap:round;stroke-linejoin:miter;stroke-miterlimit:6;stroke-opacity:1;stroke-dasharray:none"
         id="path3048" /><path
         d="m 2677.17,1423.47 c 16.32,8.16 21.22,8.16 45.71,13.06 -24.49,4.9 -29.39,4.9 -45.71,13.06 3.26,-9.8 3.26,-16.33 0,-26.12"
         style="fill:#000000;fill-opacity:1;fill-rule:evenodd;stroke:none"
         id="path3050" /><path
         d="m 1736.89,1266.76 c 16.33,8.16 21.22,8.16 45.71,13.06 -24.49,4.89 -29.38,4.89 -45.71,13.06 3.27,-9.8 3.27,-16.33 0,-26.12"
         style="fill:#000000;fill-opacity:1;fill-rule:evenodd;stroke:none"
         id="path3052" /><path
         d="m 2037.26,1397.35 c 16.32,8.16 21.22,8.16 45.7,13.06 -24.48,4.9 -29.38,4.9 -45.7,13.06 3.26,-9.79 3.26,-16.33 0,-26.12"
         style="fill:#000000;fill-opacity:1;fill-rule:evenodd;stroke:none"
         id="path3054" /><path
         d="m 2135.2,1325.52 c -8.16,16.33 -8.16,21.23 -13.06,45.71 -4.89,-24.48 -4.89,-29.38 -13.05,-45.71 9.79,3.27 16.32,3.27 26.11,0"
         style="fill:#000000;fill-opacity:1;fill-rule:evenodd;stroke:none"
         id="path3056" /><path
         d="m 633.379,1436.53 -156.711,0"
         style="fill:none;stroke:#000000;stroke-width:4.24428988;stroke-linecap:round;stroke-linejoin:miter;stroke-miterlimit:6;stroke-opacity:1;stroke-dasharray:none"
         id="path3058" /><g
         id="g3060"
         transform="scale(4.35312,4.35312)"><text
           transform="matrix(1,0,0,-1,72.5657,324.388)"
           id="text3062"><tspan
             style="font-size:15px;font-variant:normal;font-weight:normal;writing-mode:lr-tb;fill:#000000;fill-opacity:1;fill-rule:nonzero;stroke:none;font-family:Helvetica;-inkscape-font-specification:Helvetica"
             x="0 10.005 20.834999"
             y="0"
             sodipodi:role="line"
             id="tspan3064">ADC</tspan></text>
</g><path
         d="m 613.789,1423.47 c 16.324,8.16 21.223,8.16 45.707,13.06 -24.484,4.9 -29.383,4.9 -45.707,13.06 3.266,-9.8 3.266,-16.33 0,-26.12"
         style="fill:#000000;fill-opacity:1;fill-rule:evenodd;stroke:none"
         id="path3066" /><path
         d="m 3068.95,1423.47 c 16.32,8.16 21.22,8.16 45.71,13.06 -24.49,4.9 -29.39,4.9 -45.71,13.06 3.26,-9.8 3.26,-16.33 0,-26.12"
         style="fill:#000000;fill-opacity:1;fill-rule:evenodd;stroke:none"
         id="path3068" /><path
         d="m 3088.54,1436.53 -156.72,0"
         style="fill:none;stroke:#000000;stroke-width:4.24428988;stroke-linecap:round;stroke-linejoin:miter;stroke-miterlimit:6;stroke-opacity:1;stroke-dasharray:none"
         id="path3070" /><path
         d="m 3114.66,1358.17 365.66,0 0,156.711 -365.66,0 0,-156.711 z"
         style="fill:none;stroke:#000000;stroke-width:4.24428988;stroke-linecap:round;stroke-linejoin:miter;stroke-miterlimit:6;stroke-opacity:1;stroke-dasharray:none"
         id="path3072" /><g
         id="g3074"
         transform="scale(4.35312,4.35312)"><text
           transform="matrix(1,0,0,-1,720.351,324.478)"
           id="text3076"><tspan
             style="font-size:15px;font-variant:normal;font-weight:normal;writing-mode:lr-tb;fill:#000000;fill-opacity:1;fill-rule:nonzero;stroke:none;font-family:Helvetica;-inkscape-font-specification:Helvetica"
             x="0 4.1700001 12.51 16.68 25.02 30.014999 38.355 46.695 50.025002 58.365002 62.535 70.875"
             y="0"
             sodipodi:role="line"
             id="tspan3078">Interpolator</tspan></text>
</g><path
         d="m 3617.44,1423.47 c 16.33,8.16 21.22,8.16 45.71,13.06 -24.49,4.9 -29.38,4.9 -45.71,13.06 3.26,-9.8 3.26,-16.33 0,-26.12"
         style="fill:#000000;fill-opacity:1;fill-rule:evenodd;stroke:none"
         id="path3080" /><path
         d="m 3637.03,1436.53 -156.71,0"
         style="fill:none;stroke:#000000;stroke-width:4.24428988;stroke-linecap:round;stroke-linejoin:miter;stroke-miterlimit:6;stroke-opacity:1;stroke-dasharray:none"
         id="path3082" /><g
         id="g3084"
         transform="scale(4.35312,4.35312)"><text
           transform="matrix(1,0,0,-1,844.752,324.388)"
           id="text3086"><tspan
             style="font-size:15px;font-variant:normal;font-weight:normal;writing-mode:lr-tb;fill:#000000;fill-opacity:1;fill-rule:nonzero;stroke:none;font-family:Helvetica;-inkscape-font-specification:Helvetica"
             x="0 10.83 20.834999"
             y="0"
             sodipodi:role="line"
             id="tspan3088">DAC</tspan></text>
</g><path
         d="m 2435.57,1462.65 0,-52.24 -104.48,-52.24 0,156.71 104.48,-52.23"
         style="fill:none;stroke:#000000;stroke-width:4.24428988;stroke-linecap:round;stroke-linejoin:miter;stroke-miterlimit:6;stroke-opacity:1;stroke-dasharray:none"
         id="path3090" /><path
         d="m 2696.75,1436.53 -261.18,0"
         style="fill:none;stroke:#000000;stroke-width:4.24428988;stroke-linecap:round;stroke-linejoin:miter;stroke-miterlimit:6;stroke-opacity:1;stroke-dasharray:none"
         id="path3092" /><g
         id="g3094"
         transform="scale(4.35312,4.35312)"><text
           transform="matrix(1,0,0,-1,543.12,324.898)"
           id="text3096"><tspan
             style="font-size:15px;font-variant:normal;font-weight:normal;writing-mode:lr-tb;fill:#000000;fill-opacity:1;fill-rule:nonzero;stroke:none;font-family:Symbol;-inkscape-font-specification:Symbol"
             x="0"
             y="0"
             id="tspan3098">Σ</tspan></text>
</g><path
         d="m 1782.6,1514.88 156.711,0 0,156.715 -156.711,0 0,-156.715 z"
         style="fill:none;stroke:#000000;stroke-width:4.24428988;stroke-linecap:round;stroke-linejoin:miter;stroke-miterlimit:6;stroke-opacity:1;stroke-dasharray:none"
         id="path3100" /><g
         id="g3102"
         transform="scale(4.35312,4.35312)"><text
           transform="matrix(1,0,0,-1,420.59,359.019)"
           id="text3104"><tspan
             style="font-size:15px;font-variant:normal;font-weight:normal;writing-mode:lr-tb;fill:#000000;fill-opacity:1;fill-rule:nonzero;stroke:none;font-family:Helvetica;-inkscape-font-specification:Helvetica"
             x="0"
             y="0"
             id="tspan3106">z</tspan></text>
<text
           transform="matrix(1,0,0,-1,428.09002,365.75268)"
           id="text3108"><tspan
             style="font-size:10.05000019px;font-variant:normal;font-weight:normal;writing-mode:lr-tb;fill:#000000;fill-opacity:1;fill-rule:nonzero;stroke:none;font-family:Helvetica;-inkscape-font-specification:Helvetica"
             x="0 3.3466499"
             y="0"
             sodipodi:role="line"
             id="tspan3110">-1</tspan></text>
</g><path
         d="m 2148.26,1619.36 -52.23,-52.24"
         style="fill:none;stroke:#000000;stroke-width:4.24428988;stroke-linecap:round;stroke-linejoin:miter;stroke-miterlimit:6;stroke-opacity:1;stroke-dasharray:none"
         id="path3112" /><path
         d="m 2148.26,1567.12 -52.23,52.24"
         style="fill:none;stroke:#000000;stroke-width:4.24428988;stroke-linecap:round;stroke-linejoin:miter;stroke-miterlimit:6;stroke-opacity:1;stroke-dasharray:none"
         id="path3114" /><path
         d="m 2158.06,1593.24 c 0,19.83 -16.08,35.91 -35.92,35.91 -19.83,0 -35.91,-16.08 -35.91,-35.91 0,-19.83 16.08,-35.91 35.91,-35.91 19.84,0 35.92,16.08 35.92,35.91"
         style="fill:none;stroke:#000000;stroke-width:4.24428988;stroke-linecap:round;stroke-linejoin:miter;stroke-miterlimit:6;stroke-opacity:1;stroke-dasharray:none"
         id="path3116" /><path
         d="m 2037.26,1580.18 c 16.32,8.16 21.22,8.16 45.7,13.06 -24.48,4.9 -29.38,4.9 -45.7,13.06 3.26,-9.8 3.26,-16.32 0,-26.12"
         style="fill:#000000;fill-opacity:1;fill-rule:evenodd;stroke:none"
         id="path3118" /><path
         d="m 2109.09,1678.12 c 8.16,-16.32 8.16,-21.21 13.05,-45.7 4.9,24.49 4.9,29.38 13.06,45.7 -9.79,-3.26 -16.32,-3.26 -26.11,0"
         style="fill:#000000;fill-opacity:1;fill-rule:evenodd;stroke:none"
         id="path3120" /><path
         d="m 1756.48,1593.24 -104.47,0 0,-182.83"
         style="fill:none;stroke:#000000;stroke-width:4.24428988;stroke-linecap:round;stroke-linejoin:miter;stroke-miterlimit:6;stroke-opacity:1;stroke-dasharray:none"
         id="path3122" /><path
         d="m 2043.79,1593.24 -104.48,0"
         style="fill:none;stroke:#000000;stroke-width:4.24428988;stroke-linecap:round;stroke-linejoin:miter;stroke-miterlimit:6;stroke-opacity:1;stroke-dasharray:none"
         id="path3124" /><path
         d="m 1234.11,1802.19 -104.48,0 0,-391.78"
         style="fill:none;stroke:#000000;stroke-width:4.24428988;stroke-linecap:round;stroke-linejoin:miter;stroke-miterlimit:6;stroke-opacity:1;stroke-dasharray:none"
         id="path3126" /><path
         d="m 1260.23,1723.84 261.188,0 0,156.711 -261.188,0 0,-156.711 z"
         style="fill:none;stroke:#000000;stroke-width:4.24428988;stroke-linecap:round;stroke-linejoin:miter;stroke-miterlimit:6;stroke-opacity:1;stroke-dasharray:none"
         id="path3128" /><g
         id="g3130"
         transform="scale(4.35312,4.35312)"><text
           transform="matrix(1,0,0,-1,295.621,409.979)"
           id="text3132"><tspan
             style="font-size:15px;font-variant:normal;font-weight:normal;writing-mode:lr-tb;fill:#000000;fill-opacity:1;fill-rule:nonzero;stroke:none;font-family:Helvetica;-inkscape-font-specification:Helvetica"
             x="0 8.3400002 16.68 27.51 32.505001 40.845001"
             y="0"
             sodipodi:role="line"
             id="tspan3134">unwrap</tspan></text>
</g><path
         d="m 2122.14,1671.6 0,130.59 -182.83,0"
         style="fill:none;stroke:#000000;stroke-width:4.24428988;stroke-linecap:round;stroke-linejoin:miter;stroke-miterlimit:6;stroke-opacity:1;stroke-dasharray:none"
         id="path3136" /><path
         d="m 2161.32,1593.24 39.18,0 0,-130.59 104.48,0"
         style="fill:none;stroke:#000000;stroke-width:4.24428988;stroke-linecap:round;stroke-linejoin:miter;stroke-miterlimit:6;stroke-opacity:1;stroke-dasharray:none"
         id="path3138" /><path
         d="m 1736.89,1580.18 c 16.33,8.16 21.22,8.16 45.71,13.06 -24.49,4.9 -29.38,4.9 -45.71,13.06 3.27,-9.8 3.27,-16.32 0,-26.12"
         style="fill:#000000;fill-opacity:1;fill-rule:evenodd;stroke:none"
         id="path3140" /><path
         d="m 2285.39,1449.59 c 16.32,8.16 21.22,8.16 45.7,13.06 -24.48,4.89 -29.38,4.89 -45.7,13.06 3.26,-9.8 3.26,-16.33 0,-26.12"
         style="fill:#000000;fill-opacity:1;fill-rule:evenodd;stroke:none"
         id="path3142" /><path
         d="m 2285.39,1397.35 c 16.32,8.16 21.22,8.16 45.7,13.06 -24.48,4.9 -29.38,4.9 -45.7,13.06 3.26,-9.79 3.26,-16.33 0,-26.12"
         style="fill:#000000;fill-opacity:1;fill-rule:evenodd;stroke:none"
         id="path3144" /><path
         d="m 1129.63,1436.53 -261.185,0"
         style="fill:none;stroke:#000000;stroke-width:4.24428988;stroke-linecap:round;stroke-linejoin:miter;stroke-miterlimit:6;stroke-opacity:1;stroke-dasharray:none"
         id="path3146" /><path
         d="m 2435.57,652.969 -1253.7,0"
         style="fill:none;stroke:#000000;stroke-width:4.24428988;stroke-linecap:round;stroke-linejoin:miter;stroke-miterlimit:6;stroke-opacity:1;stroke-dasharray:none"
         id="path3148" /><path
         d="m 1965.43,444.02 0,208.949"
         style="fill:none;stroke:#000000;stroke-width:4.24428988;stroke-linecap:round;stroke-linejoin:miter;stroke-miterlimit:6;stroke-opacity:1;stroke-dasharray:none"
         id="path3150" /><g
         id="g3152"
         transform="scale(4.35312,4.35312)"><text
           transform="matrix(1,0,0,-1,364.796,474)"
           id="text3154"><tspan
             style="font-size:15px;font-variant:normal;font-weight:normal;writing-mode:lr-tb;fill:#000000;fill-opacity:1;fill-rule:nonzero;stroke:none;font-family:Helvetica;-inkscape-font-specification:Helvetica"
             x="0 4.1700001 12.51 16.68 25.02 30.014999 33.345001 41.685001 50.025002 57.525002 65.864998 74.205002 78.375 82.544998 86.714996 95.055 103.395 111.735 115.905"
             y="0"
             sodipodi:role="line"
             id="tspan3156">Interleaved I and Q</tspan></text>
</g><path
         d="m 1051.28,1149.22 1488.77,0 0,835.797 -1488.77,0 0,-835.797 z"
         style="fill:none;stroke:#000000;stroke-width:4.24428988;stroke-linecap:round;stroke-linejoin:miter;stroke-miterlimit:6;stroke-opacity:1;stroke-dasharray:0.816209, 16.9772;stroke-dashoffset:0"
         id="path3158" /><path
         d="m 1652.01,1802.19 -130.6,0"
         style="fill:none;stroke:#000000;stroke-width:4.24428988;stroke-linecap:round;stroke-linejoin:miter;stroke-miterlimit:6;stroke-opacity:1;stroke-dasharray:none"
         id="path3160" /><path
         d="m 1678.12,1723.84 261.188,0 0,156.711 -261.188,0 0,-156.711 z"
         style="fill:none;stroke:#000000;stroke-width:4.24428988;stroke-linecap:round;stroke-linejoin:miter;stroke-miterlimit:6;stroke-opacity:1;stroke-dasharray:none"
         id="path3162" /><g
         id="g3164"
         transform="scale(4.35312,4.35312)"><text
           transform="matrix(1,0,0,-1,390.936,408.554)"
           id="text3166"><tspan
             style="font-size:15px;font-variant:normal;font-weight:normal;writing-mode:lr-tb;fill:#000000;fill-opacity:1;fill-rule:nonzero;stroke:none;font-family:Helvetica;-inkscape-font-specification:Helvetica"
             x="0 10.005 15 19.17 23.34 31.68 40.02 43.349998"
             y="0"
             sodipodi:role="line"
             id="tspan3168">P-I gain</tspan></text>
</g><path
         d="m 1214.52,1789.13 c 16.32,8.16 21.22,8.16 45.71,13.06 -24.49,4.9 -29.39,4.9 -45.71,13.06 3.27,-9.8 3.27,-16.32 0,-26.12"
         style="fill:#000000;fill-opacity:1;fill-rule:evenodd;stroke:none"
         id="path3170" /><path
         d="m 1632.42,1789.13 c 16.32,8.16 21.22,8.16 45.7,13.06 -24.48,4.9 -29.38,4.9 -45.7,13.06 3.26,-9.8 3.26,-16.32 0,-26.12"
         style="fill:#000000;fill-opacity:1;fill-rule:evenodd;stroke:none"
         id="path3172" /><g
         id="g3174"
         transform="scale(4.35312,4.35312)"><text
           transform="matrix(1,0,0,-1,277.189,384)"
           id="text3176"><tspan
             style="font-size:10.5px;font-variant:normal;font-weight:normal;writing-mode:lr-tb;fill:#000000;fill-opacity:1;fill-rule:nonzero;stroke:none;font-family:Helvetica;-inkscape-font-specification:Helvetica"
             x="0 3.4965 8.7465 11.0775 19.823999 22.155001 24.486 30.323999 33.820499 36.739498 39.658501 45.496498 48.415501 54.253502 60.091499 65.929497 68.848503 74.686501 79.936501 82.855499"
             y="0"
             sodipodi:role="line"
             id="tspan3178">(similar to pdetect)</tspan></text>
</g><path
         d="m 1390.82,809.68 0,-52.239 104.48,-52.238 0,156.715 -104.48,-52.238"
         style="fill:none;stroke:#000000;stroke-width:4.24428988;stroke-linecap:round;stroke-linejoin:miter;stroke-miterlimit:6;stroke-opacity:1;stroke-dasharray:none"
         id="path3180" /><g
         id="g3182"
         transform="scale(4.35312,4.35312)"><text
           transform="matrix(1,0,0,-1,327.12,174.902)"
           id="text3184"><tspan
             style="font-size:15px;font-variant:normal;font-weight:normal;writing-mode:lr-tb;fill:#000000;fill-opacity:1;fill-rule:nonzero;stroke:none;font-family:Symbol;-inkscape-font-specification:Symbol"
             x="0"
             y="0"
             id="tspan3186">Σ</tspan></text>
<text
           transform="matrix(1,0,0,-1,432.707,222.4541)"
           id="text3188"><tspan
             style="font-size:15px;font-variant:normal;font-weight:normal;writing-mode:lr-tb;fill:#000000;fill-opacity:1;fill-rule:nonzero;stroke:none;font-family:Helvetica;-inkscape-font-specification:Helvetica"
             x="0 8.3400002 16.68 25.02 32.52 40.860001 49.200001 54.195 62.535 66.705002 75.044998 80.040001 88.379997 96.720001 104.22"
             y="0"
             sodipodi:role="line"
             id="tspan3190">phase_reference</tspan></text>
</g><path
         d="m 1390.82,783.562 -104.47,0 0,-78.359 -104.48,0"
         style="fill:none;stroke:#000000;stroke-width:4.24428988;stroke-linecap:round;stroke-linejoin:miter;stroke-miterlimit:6;stroke-opacity:1;stroke-dasharray:none"
         id="path3192" /><path
         d="m 1201.46,718.266 c -16.32,-8.164 -21.22,-8.164 -45.71,-13.063 24.49,-4.894 29.39,-4.894 45.71,-13.058 -3.26,9.796 -3.26,16.324 0,26.121"
         style="fill:#000000;fill-opacity:1;fill-rule:evenodd;stroke:none"
         id="path3194" /><path
         d="m 1521.41,809.68 156.71,0"
         style="fill:none;stroke:#000000;stroke-width:4.24428988;stroke-linecap:round;stroke-linejoin:miter;stroke-miterlimit:6;stroke-opacity:1;stroke-dasharray:none"
         id="path3196" /><path
         d="m 1541,822.738 c -16.32,-8.16 -21.22,-8.16 -45.7,-13.058 24.48,-4.899 29.38,-4.899 45.7,-13.059 -3.26,9.793 -3.26,16.324 0,26.117"
         style="fill:#000000;fill-opacity:1;fill-rule:evenodd;stroke:none"
         id="path3198" /><path
         d="m 1678.12,992.512 0,-182.832"
         style="fill:none;stroke:#000000;stroke-width:4.24428988;stroke-linecap:round;stroke-linejoin:miter;stroke-miterlimit:6;stroke-opacity:1;stroke-dasharray:none"
         id="path3200" /><path
         d="m 1338.58,914.156 156.715,0 0,156.711 -156.715,0 0,-156.711 z"
         style="fill:none;stroke:#000000;stroke-width:4.24428988;stroke-linecap:round;stroke-linejoin:miter;stroke-miterlimit:6;stroke-opacity:1;stroke-dasharray:none"
         id="path3202" /><g
         id="g3204"
         transform="scale(4.35312,4.35312)"><text
           transform="matrix(1,0,0,-1,322.466,218.326)"
           id="text3206"><tspan
             style="font-size:21px;font-variant:normal;font-weight:normal;writing-mode:lr-tb;fill:#000000;fill-opacity:1;fill-rule:nonzero;stroke:none;font-family:Symbol;-inkscape-font-specification:Symbol"
             x="0"
             y="0"
             id="tspan3208" /></text>
</g><path
         d="m 1860.96,992.512 -365.66,0"
         style="fill:none;stroke:#000000;stroke-width:4.24428988;stroke-linecap:round;stroke-linejoin:miter;stroke-miterlimit:6;stroke-opacity:1;stroke-dasharray:none"
         id="path3210" /><path
         d="m 1687.92,992.512 c 0,5.406 -4.39,9.788 -9.8,9.788 -5.4,0 -9.79,-4.382 -9.79,-9.788 0,-5.407 4.39,-9.797 9.79,-9.797 5.41,0 9.8,4.39 9.8,9.797"
         style="fill:#000000;fill-opacity:1;fill-rule:evenodd;stroke:none"
         id="path3212" /><path
         d="m 1292.88,979.449 c 16.32,8.164 21.22,8.164 45.7,13.063 -24.48,4.894 -29.38,4.894 -45.7,13.058 3.26,-9.797 3.26,-16.324 0,-26.121"
         style="fill:#000000;fill-opacity:1;fill-rule:evenodd;stroke:none"
         id="path3214" /><g
         id="g3216"
         transform="scale(4.35312,4.35312)"><text
           transform="matrix(1,0,0,-1,234.207,222.387)"
           id="text3218"><tspan
             style="font-size:15px;font-variant:normal;font-weight:normal;writing-mode:lr-tb;fill:#000000;fill-opacity:1;fill-rule:nonzero;stroke:none;font-family:Symbol;-inkscape-font-specification:Symbol"
             x="0"
             y="0"
             id="tspan3220">φ</tspan></text>
<text
           transform="matrix(1,0,0,-1,242.02198,219.07041)"
           id="text3222"><tspan
             style="font-size:10.05000019px;font-variant:normal;font-weight:normal;writing-mode:lr-tb;fill:#000000;fill-opacity:1;fill-rule:nonzero;stroke:none;font-family:Helvetica;-inkscape-font-specification:Helvetica"
             x="0 7.2561002 13.95945"
             y="0"
             sodipodi:role="line"
             id="tspan3224">REF</tspan></text>
<text
           transform="matrix(1,0,0,-1,266.29158,222.387)"
           id="text3226"><tspan
             style="font-size:15px;font-variant:normal;font-weight:normal;writing-mode:lr-tb;fill:#000000;fill-opacity:1;fill-rule:nonzero;stroke:none;font-family:Helvetica;-inkscape-font-specification:Helvetica"
             x="0"
             y="0"
             id="tspan3228">Q</tspan></text>
</g><path
         d="m 1312.46,992.512 -78.35,0"
         style="fill:none;stroke:#000000;stroke-width:4.24428988;stroke-linecap:round;stroke-linejoin:miter;stroke-miterlimit:6;stroke-opacity:1;stroke-dasharray:none"
         id="path3230" /><text
         xml:space="preserve"
         style="font-size:122.32588196px;font-style:normal;font-weight:normal;fill:#000000;fill-opacity:1;stroke:none;font-family:Bitstream Vera Sans"
         x="1167.109"
         y="-1139.7068"
         id="text3232"
         transform="scale(1.1939706,-0.83754157)"><tspan
           sodipodi:role="line"
           id="tspan3234"
           x="1167.109"
           y="-1139.7068"
           style="font-style:normal;font-variant:normal;font-weight:normal;font-stretch:normal;font-family:Times New Roman;-inkscape-font-specification:'Times New Roman,'">∫</tspan></text>
</g></g></svg>